<svg xmlns="http://www.w3.org/2000/svg" version="1.1" viewBox="0 0 1024 1024" width="1024.00" height="1024.00">
<path fill="#1c191c" d="&#10;  M 497.75 0.00&#10;  L 502.39 0.00&#10;  L 531.49 0.00&#10;  Q 551.49 0.93 557.76 1.73&#10;  Q 569.26 3.18 580.71 4.76&#10;  Q 643.18 13.38 701.27 36.41&#10;  C 776.95 66.42 845.09 115.33 898.50 176.57&#10;  Q 957.52 244.27 989.41 327.60&#10;  Q 1007.89 375.92 1016.34 424.79&#10;  Q 1022.33 459.39 1024.00 494.48&#10;  L 1024.00 532.24&#10;  Q 1022.91 552.69 1021.45 564.49&#10;  C 1020.44 572.66 1019.84 579.83 1018.81 585.97&#10;  Q 1015.18 607.47 1013.23 616.84&#10;  C 996.27 698.38 958.35 777.54 904.42 841.16&#10;  Q 839.73 917.47 752.20 963.79&#10;  Q 726.58 977.35 697.55 988.50&#10;  Q 666.59 1000.38 640.55 1007.19&#10;  Q 590.96 1020.17 534.30 1024.00&#10;  L 491.26 1024.00&#10;  Q 476.11 1022.74 460.99 1021.37&#10;  Q 441.27 1019.59 407.07 1012.60&#10;  Q 377.13 1006.48 347.82 996.18&#10;  Q 323.40 987.61 307.52 980.74&#10;  C 230.01 947.23 160.98 894.10 108.95 827.80&#10;  C 59.19 764.38 25.00 688.74 9.59 609.49&#10;  Q 5.99 591.00 4.08 575.75&#10;  Q 1.42 554.49 0.00 526.76&#10;  L 0.00 498.38&#10;  Q 0.81 483.03 1.74 472.25&#10;  Q 4.77 437.08 12.14 403.48&#10;  Q 31.38 315.83 78.05 240.79&#10;  C 106.05 195.75 141.69 155.39 182.30 121.06&#10;  Q 271.49 45.65 384.52 16.34&#10;  Q 436.60 2.83 491.19 0.00&#10;  L 497.75 0.00&#10;  Z&#10;  M 757.53 158.71&#10;  C 733.24 141.64 707.19 127.01 679.71 115.48&#10;  Q 666.06 109.75 662.38 108.35&#10;  Q 635.56 98.19 606.80 91.72&#10;  C 575.52 84.67 543.55 80.64 511.79 80.63&#10;  Q 455.57 80.60 401.21 95.59&#10;  C 368.13 104.71 336.61 117.09 306.73 133.76&#10;  Q 287.88 144.27 272.53 154.52&#10;  C 216.94 191.62 169.79 242.32 137.60 300.53&#10;  Q 119.39 333.46 107.78 364.97&#10;  Q 78.05 445.69 82.20 533.50&#10;  C 82.58 541.65 83.21 552.26 84.20 561.12&#10;  Q 93.71 645.57 135.16 720.39&#10;  Q 149.61 746.48 167.73 770.78&#10;  Q 191.60 802.82 222.55 830.77&#10;  Q 228.00 835.69 229.96 837.24&#10;  C 236.46 842.39 242.84 848.07 249.07 852.80&#10;  C 309.21 898.40 380.23 928.59 454.37 938.59&#10;  Q 554.26 952.06 650.07 919.54&#10;  Q 709.15 899.48 759.48 864.22&#10;  Q 794.05 840.01 824.46 808.44&#10;  C 893.64 736.64 936.06 639.63 941.98 540.01&#10;  Q 944.76 493.21 938.19 448.08&#10;  Q 936.96 439.62 934.63 428.68&#10;  Q 931.39 413.42 930.34 409.40&#10;  Q 927.35 397.91 922.25 381.27&#10;  Q 917.99 367.40 912.45 353.67&#10;  Q 890.82 300.16 857.15 254.48&#10;  Q 840.42 231.77 817.86 209.26&#10;  Q 796.98 188.42 772.79 169.72&#10;  Q 768.82 166.65 757.53 158.71&#10;  Z"/>
<path fill="#1c191c" d="&#10;  M 310.82 351.13&#10;  A 0.33 0.33 0.0 0 0 311.44 351.09&#10;  Q 312.68 346.56 315.14 342.39&#10;  C 327.86 320.74 343.17 303.46 364.13 289.59&#10;  C 408.53 260.19 466.79 255.40 515.46 276.27&#10;  C 540.39 286.96 561.87 304.34 575.88 327.61&#10;  Q 580.91 335.96 583.67 344.89&#10;  A 0.67 0.66 51.5 0 0 584.88 345.03&#10;  Q 613.52 294.60 667.89 273.87&#10;  Q 685.32 267.23 703.51 265.03&#10;  C 726.48 262.26 749.40 263.41 771.64 269.87&#10;  C 807.97 280.43 840.57 305.53 856.40 340.36&#10;  Q 865.35 360.03 868.79 380.94&#10;  C 872.28 402.11 873.21 421.81 873.20 442.84&#10;  Q 873.15 499.62 872.83 629.16&#10;  C 872.80 640.39 873.28 661.30 873.07 672.50&#10;  Q 873.01 676.00 872.49 684.25&#10;  Q 870.90 709.35 856.24 728.13&#10;  C 838.48 750.89 811.11 761.61 781.95 759.36&#10;  Q 760.20 757.69 744.26 745.89&#10;  C 728.34 734.10 718.32 715.38 715.50 695.75&#10;  Q 713.97 685.02 713.93 672.50&#10;  Q 713.63 573.83 713.72 473.75&#10;  Q 713.73 459.99 711.70 444.56&#10;  C 708.35 419.17 696.32 397.64 669.82 391.47&#10;  C 660.21 389.24 647.72 389.20 637.88 391.65&#10;  C 612.83 397.90 600.74 419.35 597.12 443.14&#10;  C 595.23 455.62 594.87 468.55 594.87 482.66&#10;  Q 594.94 618.79 594.53 667.75&#10;  Q 594.42 680.93 591.51 696.50&#10;  Q 588.59 712.12 578.80 725.84&#10;  C 559.13 753.39 527.31 763.87 494.25 758.44&#10;  Q 479.26 755.97 467.68 748.19&#10;  C 448.87 735.55 436.43 714.77 433.17 692.81&#10;  Q 431.36 680.60 431.44 663.28&#10;  Q 431.71 600.33 431.83 481.27&#10;  C 431.86 461.12 431.67 446.25 427.09 429.68&#10;  C 421.10 407.99 404.18 393.05 381.86 390.49&#10;  C 361.20 388.13 339.62 392.55 327.13 410.67&#10;  C 319.76 421.37 316.40 435.29 315.06 447.82&#10;  Q 313.50 462.37 313.49 473.75&#10;  Q 313.37 558.67 313.08 640.50&#10;  Q 313.05 650.70 312.62 672.31&#10;  Q 312.33 686.74 309.13 700.38&#10;  C 304.83 718.73 292.95 735.68 277.64 745.93&#10;  C 255.43 760.80 226.44 763.61 200.99 754.76&#10;  C 186.02 749.54 172.85 737.76 164.37 723.92&#10;  C 153.91 706.85 151.75 686.90 151.83 667.26&#10;  Q 152.52 495.41 152.07 360.50&#10;  Q 152.03 348.48 153.10 337.85&#10;  Q 155.38 315.08 168.73 297.21&#10;  C 190.16 268.53 223.58 258.17 257.62 268.42&#10;  Q 269.46 271.99 279.82 280.20&#10;  Q 312.66 306.21 310.47 349.01&#10;  Q 310.41 350.08 310.82 351.13&#10;  Z"/>
</svg>